<svg width="180" height="74" viewBox="0 0 180 74" fill="none" xmlns="http://www.w3.org/2000/svg">
<path d="M138.588 20.5799C137.116 20.5799 135.9 20.2599 134.94 19.6199C133.98 18.9799 133.5 18.1159 133.5 17.0279C133.5 15.9719 133.852 15.1079 134.556 14.4359C135.26 13.7319 136.108 13.2039 137.1 12.8519C138.124 12.4999 139.084 12.3239 139.98 12.3239C141.452 12.3239 142.668 12.6439 143.628 13.2839C144.588 13.8919 145.068 14.7559 145.068 15.8759C145.068 16.8039 144.764 17.6359 144.156 18.3719C143.548 19.0759 142.748 19.6199 141.756 20.0039C140.796 20.3879 139.74 20.5799 138.588 20.5799ZM135.708 53.6999C133.66 53.6999 132.204 53.1879 131.34 52.1639C130.476 51.1399 130.044 49.6679 130.044 47.7479C130.044 47.0439 130.14 46.0679 130.332 44.8199C130.524 43.5399 130.78 42.1319 131.1 40.5959C131.42 39.0279 131.756 37.4439 132.108 35.8439C132.46 34.2439 132.796 32.7399 133.116 31.3319L130.428 27.2999C132.124 26.2759 133.74 25.4279 135.276 24.7559C136.812 24.0519 138.348 23.6999 139.884 23.6999C141.228 23.6999 142.156 23.9879 142.668 24.5639C143.212 25.1399 143.484 26.0359 143.484 27.2519C143.484 27.7319 143.356 28.5159 143.1 29.6039C142.876 30.6919 142.588 31.9719 142.236 33.4439C141.884 34.9159 141.532 36.4679 141.18 38.0999C140.828 39.6999 140.524 41.2839 140.268 42.8519C140.044 44.3879 139.932 45.7639 139.932 46.9799C139.932 47.9399 140.044 48.8039 140.268 49.5719C140.524 50.3079 140.908 50.8999 141.42 51.3479C139.628 52.9159 137.724 53.6999 135.708 53.6999Z" fill="#FB6542"/>
<path d="M102.346 53.6999C100.714 53.6999 99.1939 53.2679 97.7859 52.4039C96.4099 51.5079 95.2899 50.2279 94.4259 48.5639C93.5939 46.8679 93.178 44.8199 93.178 42.4199C93.178 40.4359 93.546 38.4199 94.282 36.3719C95.05 34.2919 96.202 32.3879 97.738 30.6599C99.274 28.9319 101.21 27.5399 103.546 26.4839C105.882 25.4279 108.65 24.8999 111.85 24.8999C112.362 24.8999 112.858 24.9159 113.338 24.9479C113.85 24.9799 114.378 25.0279 114.922 25.0919C114.954 24.8679 115.018 24.4679 115.114 23.8919C115.242 23.2839 115.322 22.8679 115.354 22.6439L112.666 18.8039C114.362 17.8119 115.978 16.9799 117.514 16.3079C119.05 15.6359 120.586 15.2999 122.122 15.2999C123.466 15.2999 124.394 15.5719 124.906 16.1159C125.45 16.6279 125.722 17.4919 125.722 18.7079C125.722 19.8279 125.578 21.2359 125.29 22.9319C125.002 24.5959 124.65 26.4199 124.234 28.4039C123.818 30.3559 123.386 32.3719 122.938 34.4519C122.522 36.5319 122.17 38.5319 121.882 40.4519C121.594 42.3719 121.45 44.1159 121.45 45.6839C121.45 47.1879 121.562 48.4039 121.786 49.3319C122.042 50.2279 122.426 50.8999 122.938 51.3479C121.146 52.9159 119.242 53.6999 117.226 53.6999C115.85 53.6999 114.762 53.4439 113.962 52.9319C113.194 52.4199 112.634 51.7959 112.282 51.0599C111.93 50.3239 111.754 49.6359 111.754 48.9959L111.274 48.7559C109.994 50.4519 108.57 51.6999 107.002 52.4999C105.434 53.2999 103.882 53.6999 102.346 53.6999ZM107.146 46.4999C107.978 46.4999 108.826 46.2919 109.69 45.8759C110.554 45.4599 111.37 44.8039 112.138 43.9079C112.362 41.5399 112.65 39.0919 113.002 36.5639C113.354 34.0039 113.786 31.5239 114.298 29.1239C112.346 29.1239 110.602 29.4759 109.066 30.1799C107.562 30.8519 106.298 31.7639 105.274 32.9159C104.282 34.0359 103.514 35.2679 102.97 36.6119C102.458 37.9559 102.202 39.2839 102.202 40.5959C102.202 42.4839 102.682 43.9399 103.642 44.9639C104.634 45.9879 105.802 46.4999 107.146 46.4999Z" fill="#FCB136"/>
<path d="M72.4494 53.6999C69.6334 53.6999 67.2014 53.1719 65.1534 52.1159C63.1374 51.0279 61.5854 49.5399 60.4974 47.6519C59.4094 45.7639 58.8654 43.5719 58.8654 41.0759C58.8654 37.6199 59.6174 34.5959 61.1214 32.0039C62.6574 29.3799 64.7535 27.3479 67.4095 25.9079C70.0655 24.4359 73.0894 23.6999 76.4814 23.6999C77.0254 23.6999 77.5694 23.7319 78.1134 23.7959C78.6894 23.8279 79.2975 23.9239 79.9375 24.0839C80.0975 24.5319 80.2254 25.0759 80.3214 25.7159C80.4174 26.3239 80.4814 26.9799 80.5134 27.6839C80.8014 27.5879 81.1054 27.5079 81.4254 27.4439C81.7774 27.3799 82.1454 27.3479 82.5294 27.3479C83.6494 27.3479 84.7054 27.6519 85.6974 28.2599C86.6894 28.8359 87.5054 29.7479 88.1454 30.9959C88.7854 32.2439 89.1055 33.8279 89.1055 35.7479C89.1055 38.5959 88.6255 41.1399 87.6655 43.3799C86.7375 45.5879 85.4734 47.4599 83.8734 48.9959C82.2734 50.5319 80.4815 51.6999 78.4975 52.4999C76.5455 53.2999 74.5294 53.6999 72.4494 53.6999ZM73.9375 47.7959C74.6735 47.7959 75.4415 47.6199 76.2415 47.2679C77.0415 46.9159 77.8254 46.2759 78.5934 45.3479C79.3614 44.4199 80.0014 43.1079 80.5134 41.4119C79.1374 40.5479 78.1454 39.4919 77.5374 38.2439C76.9294 36.9639 76.6254 35.5559 76.6254 34.0199C76.6254 33.5719 76.7054 32.9959 76.8654 32.2919C77.0254 31.5879 77.2974 30.8679 77.6814 30.1319C78.0974 29.3959 78.6574 28.7879 79.3615 28.3079C77.1535 28.7559 75.3455 29.4279 73.9375 30.3239C72.5295 31.2199 71.4254 32.2599 70.6254 33.4439C69.8574 34.5959 69.3135 35.7959 68.9935 37.0439C68.7055 38.2599 68.5614 39.4279 68.5614 40.5479C68.5614 41.8279 68.7695 43.0279 69.1855 44.1479C69.6015 45.2359 70.2094 46.1159 71.0094 46.7879C71.8094 47.4599 72.7855 47.7959 73.9375 47.7959Z" fill="#FCB136"/>
<path d="M38.1369 53.6999C35.3209 53.6999 32.8889 53.1719 30.841 52.1159C28.8249 51.0279 27.2729 49.5399 26.1849 47.6519C25.0969 45.7639 24.5529 43.5719 24.5529 41.0759C24.5529 37.6199 25.3049 34.5959 26.8089 32.0039C28.3449 29.3799 30.4409 27.3479 33.0969 25.9079C35.7529 24.4359 38.7769 23.6999 42.1689 23.6999C42.7129 23.6999 43.2569 23.7319 43.8009 23.7959C44.3769 23.8279 44.985 23.9239 45.625 24.0839C45.785 24.5319 45.9129 25.0759 46.0089 25.7159C46.1049 26.3239 46.169 26.9799 46.201 27.6839C46.4889 27.5879 46.7929 27.5079 47.1129 27.4439C47.4649 27.3799 47.8329 27.3479 48.2169 27.3479C49.3369 27.3479 50.3929 27.6519 51.3849 28.2599C52.3769 28.8359 53.193 29.7479 53.833 30.9959C54.4729 32.2439 54.7929 33.8279 54.7929 35.7479C54.7929 38.5959 54.313 41.1399 53.353 43.3799C52.425 45.5879 51.161 47.4599 49.561 48.9959C47.961 50.5319 46.1689 51.6999 44.1849 52.4999C42.2329 53.2999 40.2169 53.6999 38.1369 53.6999ZM39.625 47.7959C40.361 47.7959 41.1289 47.6199 41.9289 47.2679C42.7289 46.9159 43.5129 46.2759 44.2809 45.3479C45.0489 44.4199 45.689 43.1079 46.201 41.4119C44.825 40.5479 43.8329 39.4919 43.2249 38.2439C42.6169 36.9639 42.313 35.5559 42.313 34.0199C42.313 33.5719 42.3929 32.9959 42.5529 32.2919C42.7129 31.5879 42.985 30.8679 43.3689 30.1319C43.785 29.3959 44.3449 28.7879 45.049 28.3079C42.841 28.7559 41.033 29.4279 39.625 30.3239C38.217 31.2199 37.113 32.2599 36.313 33.4439C35.5449 34.5959 35.0009 35.7959 34.681 37.0439C34.393 38.2599 34.2489 39.4279 34.2489 40.5479C34.2489 41.8279 34.4569 43.0279 34.8729 44.1479C35.2889 45.2359 35.8969 46.1159 36.6969 46.7879C37.4969 47.4599 38.4729 47.7959 39.625 47.7959Z" fill="#FCB136"/>
<path d="M6.23832 53.7479C4.09432 53.7479 2.57432 53.1399 1.67832 51.9239C0.814324 50.6759 0.382324 48.8039 0.382324 46.3079C0.382324 44.7079 0.638324 42.3079 1.15032 39.1079C1.69432 35.8759 2.44632 31.6039 3.40632 26.2919L0.862324 21.1559C2.36632 20.1959 3.96632 19.3799 5.66232 18.7079C7.35832 18.0039 9.05432 17.6519 10.7503 17.6519C11.8383 17.6519 12.6383 17.9079 13.1503 18.4199C13.6943 18.9319 14.0623 19.5719 14.2543 20.3399C15.8543 20.2759 17.8383 20.0199 20.2063 19.5719C22.5743 19.1239 24.9423 18.5639 27.3103 17.8919C27.5663 19.3319 27.6943 20.5479 27.6943 21.5399C27.6943 22.9479 27.3263 24.1479 26.5903 25.1399C25.8543 26.1319 24.8623 26.8839 23.6143 27.3959C22.3983 27.8759 21.0383 28.1159 19.5343 28.1159C18.5423 28.1159 17.5823 27.9879 16.6543 27.7319C15.7583 27.4759 14.8143 27.1079 13.8223 26.6279C13.6303 27.8119 13.3903 29.1079 13.1023 30.5159C12.8143 31.8919 12.5423 33.2839 12.2863 34.6919C12.7983 34.8199 13.3103 34.9159 13.8223 34.9799C14.3343 35.0439 14.8463 35.0759 15.3583 35.0759C15.9983 34.9479 16.7183 34.7879 17.5183 34.5959C18.3503 34.3719 19.0703 34.1639 19.6783 33.9719C19.8063 34.3879 19.8703 34.8199 19.8703 35.2679C19.9023 35.6839 19.9183 36.0199 19.9183 36.2759C19.9183 37.8119 19.3903 38.9319 18.3343 39.6359C17.3103 40.3399 16.0943 40.6919 14.6863 40.6919C14.0463 40.6919 13.4543 40.6599 12.9103 40.5959C12.3663 40.4999 11.8223 40.3879 11.2783 40.2599C10.9263 42.2759 10.7503 43.7319 10.7503 44.6279C10.7503 46.2599 10.8623 47.6359 11.0863 48.7559C11.3423 49.8759 11.7103 50.8199 12.1903 51.5879C10.2703 53.0279 8.28632 53.7479 6.23832 53.7479Z" fill="#FCB136"/>
<path d="M158.507 52.7774C155.673 51.871 153.441 50.6029 151.812 48.9733C150.183 47.3437 149.153 45.469 148.722 43.349C148.331 41.2084 148.516 38.9493 149.276 36.5719C150.066 34.1031 151.224 32.0042 152.751 30.2752C154.319 28.5254 156.144 27.1773 158.227 26.2309C160.311 25.2844 162.546 24.7561 164.933 24.6459C167.35 24.5454 169.809 24.8948 172.308 25.694C175.264 26.6394 177.234 27.9916 178.217 29.7506C179.2 31.5096 179.375 33.3796 178.741 35.3608C178.195 37.0677 177.115 38.5028 175.5 39.6661C173.925 40.8087 171.752 41.4578 168.981 41.6131C166.22 41.7381 162.777 41.1579 158.653 39.8726C158.12 41.8525 158.07 43.533 158.502 44.9142C158.974 46.2746 159.82 47.1497 161.039 47.5396C161.648 47.7345 162.332 47.8021 163.091 47.7422C163.859 47.6518 164.588 47.314 165.279 46.7286C165.98 46.1129 166.54 45.1497 166.959 43.839C169.032 44.5018 170.589 45.2518 171.632 46.0891C172.674 46.9265 173.006 47.9395 172.625 49.1282C172.275 50.2254 171.441 51.2021 170.126 52.0582C168.821 52.8838 167.157 53.4102 165.136 53.6373C163.155 53.8438 160.945 53.5571 158.507 52.7774ZM160.234 36.3466C162.517 36.8752 164.432 37.0339 165.978 36.8227C167.523 36.6115 168.733 36.1918 169.605 35.5638C170.478 34.9358 171.027 34.2713 171.251 33.5703C171.446 32.9607 171.424 32.3993 171.185 31.8861C170.945 31.3729 170.491 31.0091 169.82 30.7947C168.723 30.4438 167.58 30.4983 166.391 30.9581C165.203 31.418 164.063 32.1454 162.972 33.1404C161.922 34.1147 161.009 35.1834 160.234 36.3466Z" fill="#FB6542"/>
<path d="M75.4613 0.123535C60.6427 2.3306 58.646 14.9683 59.4999 21.0112C61.2734 14.9025 64.4262 10.9615 68.3673 8.59682C63.4409 13.5232 62.0615 17.4643 61.2733 22.5877C78.22 18.2525 76.2496 5.24689 75.4613 0.123535Z" fill="#18AE5F"/>
<path d="M55.7554 23.3767C52.0771 22.4571 45.0357 18.1349 46.2969 8.20342C54.7202 7.10615 57.2725 16.9446 57.4581 21.353C56.5416 19.3846 54.2885 15.2417 52.425 13.9849C53.8802 15.8878 56.5836 20.4302 55.7554 23.3767Z" fill="#18AE5F"/>
<path d="M58.2973 62.7775C57.2699 66.7861 54.9362 68.8474 53.8978 69.377C56.7603 69.7122 60.756 68.785 62.396 68.2796C67.3127 59.6485 59.3248 58.7687 58.2973 62.7775Z" fill="#FCB136"/>
<path fill-rule="evenodd" clip-rule="evenodd" d="M62.459 61.0097C61.0835 60.2834 59.011 60.9999 58.5395 62.8395C57.6694 66.2343 55.8731 68.2742 54.658 69.1862C55.8909 69.2406 57.2748 69.1059 58.5653 68.8967C58.7512 68.8666 58.9349 68.835 59.1157 68.8022C59.3709 68.1983 59.7514 67.2423 60.0893 66.2761C60.4393 65.2752 60.7346 64.2879 60.8072 63.6676C60.8233 63.5304 60.9475 63.4323 61.0846 63.4483C61.2218 63.4644 61.3199 63.5886 61.3038 63.7257C61.224 64.4075 60.9104 65.4427 60.5613 66.4411C60.2721 67.2681 59.9525 68.0866 59.7042 68.6897C60.7293 68.4837 61.6223 68.252 62.2276 68.0695C63.4059 65.9766 63.7933 64.3807 63.7247 63.2298C63.6559 62.0742 63.1293 61.3636 62.459 61.0097ZM64.2238 63.2C64.3013 64.5006 63.8551 66.2232 62.6132 68.4033L62.5642 68.4893L62.4696 68.5185C61.6389 68.7745 60.2188 69.1353 58.6453 69.3903C57.0748 69.6448 55.3338 69.7968 53.8688 69.6253L53.0489 69.5293L53.7843 69.1542C54.7541 68.6596 57.0442 66.6596 58.0552 62.7154C58.6111 60.5463 61.0463 59.6983 62.6924 60.5675C63.5329 61.0113 64.1457 61.8884 64.2238 63.2Z" fill="black"/>
<path d="M67.0658 70.5702C74.8177 66.7027 85.6705 60.4594 67.0658 66.4264C51.2458 71.5003 37.1072 69.0771 29.6547 66.4264C42.8265 76.3715 60.0837 73.3327 67.0658 70.5702Z" fill="#FB8500"/>
<path d="M65.3726 55.6937C63.9681 55.6935 63.604 59.1161 63.9922 60.784C64.9205 59.9781 66.3925 58.7763 66.6593 57.9878C66.9262 57.1994 66.6594 55.6939 65.3726 55.6937Z" fill="#FCB136"/>
<path d="M54.5012 62.3144C54.6965 63.3848 56.2037 63.6004 57.0247 63.5639C56.2604 63.2256 55.8246 62.4362 55.7022 62.0838C55.3838 61.1724 54.2929 61.1723 54.5012 62.3144Z" fill="#FCB136"/>
<path d="M67.1805 61.1925C66.4062 60.7623 65.549 61.7483 65.2172 62.2951C65.4052 62.0798 66.2123 62.2951 66.7233 62.2951C67.3687 62.2951 68.1485 61.7303 67.1805 61.1925Z" fill="#FCB136"/>
</svg>
