<svg width="180" height="56" viewBox="0 0 180 56" fill="none" xmlns="http://www.w3.org/2000/svg">
<path d="M6.23832 55.748C4.09432 55.748 2.57432 55.14 1.67832 53.924C0.814324 52.676 0.382324 50.804 0.382324 48.308C0.382324 46.708 0.638324 44.308 1.15032 41.108C1.69432 37.876 2.44632 33.604 3.40632 28.292L0.862324 23.156C2.36632 22.196 3.96632 21.38 5.66232 20.708C7.35832 20.004 9.05432 19.652 10.7503 19.652C11.8383 19.652 12.6383 19.908 13.1503 20.42C13.6943 20.932 14.0623 21.572 14.2543 22.34C15.8543 22.276 17.8383 22.02 20.2063 21.572C22.5743 21.124 24.9423 20.564 27.3103 19.892C27.5663 21.332 27.6943 22.548 27.6943 23.54C27.6943 24.948 27.3263 26.148 26.5903 27.14C25.8543 28.132 24.8623 28.884 23.6143 29.396C22.3983 29.876 21.0383 30.116 19.5343 30.116C18.5423 30.116 17.5823 29.988 16.6543 29.732C15.7583 29.476 14.8143 29.108 13.8223 28.628C13.6303 29.812 13.3903 31.108 13.1023 32.516C12.8143 33.892 12.5423 35.284 12.2863 36.692C12.7983 36.82 13.3103 36.916 13.8223 36.98C14.3343 37.044 14.8463 37.076 15.3583 37.076C15.9983 36.948 16.7183 36.788 17.5183 36.596C18.3503 36.372 19.0703 36.164 19.6783 35.972C19.8063 36.388 19.8703 36.82 19.8703 37.268C19.9023 37.684 19.9183 38.02 19.9183 38.276C19.9183 39.812 19.3903 40.932 18.3343 41.636C17.3103 42.34 16.0943 42.692 14.6863 42.692C14.0463 42.692 13.4543 42.66 12.9103 42.596C12.3663 42.5 11.8223 42.388 11.2783 42.26C10.9263 44.276 10.7503 45.732 10.7503 46.628C10.7503 48.26 10.8623 49.636 11.0863 50.756C11.3423 51.876 11.7103 52.82 12.1903 53.588C10.2703 55.028 8.28632 55.748 6.23832 55.748Z" fill="#FCB136"/>
<path d="M38.1369 55.7C35.3209 55.7 32.8889 55.172 30.841 54.116C28.8249 53.028 27.2729 51.54 26.1849 49.652C25.0969 47.764 24.5529 45.572 24.5529 43.076C24.5529 39.62 25.3049 36.596 26.8089 34.004C28.3449 31.38 30.441 29.348 33.097 27.908C35.753 26.436 38.7769 25.7 42.1689 25.7C42.7129 25.7 43.2569 25.732 43.8009 25.796C44.3769 25.828 44.985 25.924 45.625 26.084C45.785 26.532 45.9129 27.076 46.0089 27.716C46.1049 28.324 46.169 28.98 46.201 29.684C46.4889 29.588 46.793 29.508 47.113 29.444C47.465 29.38 47.8329 29.348 48.2169 29.348C49.3369 29.348 50.3929 29.652 51.3849 30.26C52.3769 30.836 53.193 31.748 53.833 32.996C54.4729 34.244 54.7929 35.828 54.7929 37.748C54.7929 40.596 54.313 43.14 53.353 45.38C52.425 47.588 51.161 49.46 49.561 50.996C47.961 52.532 46.169 53.7 44.185 54.5C42.233 55.3 40.2169 55.7 38.1369 55.7ZM39.625 49.796C40.361 49.796 41.1289 49.62 41.9289 49.268C42.7289 48.916 43.513 48.276 44.281 47.348C45.049 46.42 45.689 45.108 46.201 43.412C44.825 42.548 43.8329 41.492 43.2249 40.244C42.6169 38.964 42.313 37.556 42.313 36.02C42.313 35.572 42.3929 34.996 42.5529 34.292C42.7129 33.588 42.985 32.868 43.3689 32.132C43.785 31.396 44.3449 30.788 45.049 30.308C42.841 30.756 41.033 31.428 39.625 32.324C38.217 33.22 37.113 34.26 36.313 35.444C35.5449 36.596 35.0009 37.796 34.681 39.044C34.393 40.26 34.249 41.428 34.249 42.548C34.249 43.828 34.457 45.028 34.873 46.148C35.289 47.236 35.8969 48.116 36.6969 48.788C37.4969 49.46 38.4729 49.796 39.625 49.796Z" fill="#FCB136"/>
<path d="M72.4494 55.7C69.6334 55.7 67.2014 55.172 65.1535 54.116C63.1374 53.028 61.5854 51.54 60.4974 49.652C59.4094 47.764 58.8654 45.572 58.8654 43.076C58.8654 39.62 59.6174 36.596 61.1214 34.004C62.6574 31.38 64.7534 29.348 67.4094 27.908C70.0654 26.436 73.0895 25.7 76.4815 25.7C77.0255 25.7 77.5694 25.732 78.1134 25.796C78.6894 25.828 79.2975 25.924 79.9375 26.084C80.0975 26.532 80.2254 27.076 80.3214 27.716C80.4174 28.324 80.4815 28.98 80.5135 29.684C80.8014 29.588 81.1055 29.508 81.4255 29.444C81.7775 29.38 82.1454 29.348 82.5294 29.348C83.6494 29.348 84.7054 29.652 85.6974 30.26C86.6894 30.836 87.5054 31.748 88.1454 32.996C88.7854 34.244 89.1055 35.828 89.1055 37.748C89.1055 40.596 88.6255 43.14 87.6655 45.38C86.7375 47.588 85.4735 49.46 83.8735 50.996C82.2735 52.532 80.4815 53.7 78.4975 54.5C76.5455 55.3 74.5294 55.7 72.4494 55.7ZM73.9375 49.796C74.6735 49.796 75.4414 49.62 76.2414 49.268C77.0414 48.916 77.8255 48.276 78.5935 47.348C79.3615 46.42 80.0015 45.108 80.5135 43.412C79.1375 42.548 78.1455 41.492 77.5375 40.244C76.9295 38.964 76.6255 37.556 76.6255 36.02C76.6255 35.572 76.7054 34.996 76.8654 34.292C77.0254 33.588 77.2975 32.868 77.6814 32.132C78.0975 31.396 78.6574 30.788 79.3615 30.308C77.1535 30.756 75.3455 31.428 73.9375 32.324C72.5295 33.22 71.4255 34.26 70.6255 35.444C69.8574 36.596 69.3134 37.796 68.9934 39.044C68.7054 40.26 68.5614 41.428 68.5614 42.548C68.5614 43.828 68.7694 45.028 69.1854 46.148C69.6014 47.236 70.2095 48.116 71.0095 48.788C71.8095 49.46 72.7855 49.796 73.9375 49.796Z" fill="#FCB136"/>
<path d="M102.346 55.7C100.714 55.7 99.1939 55.268 97.7859 54.404C96.4099 53.508 95.2899 52.228 94.4259 50.564C93.5939 48.868 93.1779 46.82 93.1779 44.42C93.1779 42.436 93.546 40.42 94.282 38.372C95.05 36.292 96.2019 34.388 97.7379 32.66C99.2739 30.932 101.21 29.54 103.546 28.484C105.882 27.428 108.65 26.9 111.85 26.9C112.362 26.9 112.858 26.916 113.338 26.948C113.85 26.98 114.378 27.028 114.922 27.092C114.954 26.868 115.018 26.468 115.114 25.892C115.242 25.284 115.322 24.868 115.354 24.644L112.666 20.804C114.362 19.812 115.978 18.98 117.514 18.308C119.05 17.636 120.586 17.3 122.122 17.3C123.466 17.3 124.394 17.572 124.906 18.116C125.45 18.628 125.722 19.492 125.722 20.708C125.722 21.828 125.578 23.236 125.29 24.932C125.002 26.596 124.65 28.42 124.234 30.404C123.818 32.356 123.386 34.372 122.938 36.452C122.522 38.532 122.17 40.532 121.882 42.452C121.594 44.372 121.45 46.116 121.45 47.684C121.45 49.188 121.562 50.404 121.786 51.332C122.042 52.228 122.426 52.9 122.938 53.348C121.146 54.916 119.242 55.7 117.226 55.7C115.85 55.7 114.762 55.444 113.962 54.932C113.194 54.42 112.634 53.796 112.282 53.06C111.93 52.324 111.754 51.636 111.754 50.996L111.274 50.756C109.994 52.452 108.57 53.7 107.002 54.5C105.434 55.3 103.882 55.7 102.346 55.7ZM107.146 48.5C107.978 48.5 108.826 48.292 109.69 47.876C110.554 47.46 111.37 46.804 112.138 45.908C112.362 43.54 112.65 41.092 113.002 38.564C113.354 36.004 113.786 33.524 114.298 31.124C112.346 31.124 110.602 31.476 109.066 32.18C107.562 32.852 106.298 33.764 105.274 34.916C104.282 36.036 103.514 37.268 102.97 38.612C102.458 39.956 102.202 41.284 102.202 42.596C102.202 44.484 102.682 45.94 103.642 46.964C104.634 47.988 105.802 48.5 107.146 48.5Z" fill="#FCB136"/>
<path d="M138.588 22.58C137.116 22.58 135.9 22.26 134.94 21.62C133.98 20.98 133.5 20.116 133.5 19.028C133.5 17.972 133.852 17.108 134.556 16.436C135.26 15.732 136.108 15.204 137.1 14.852C138.124 14.5 139.084 14.324 139.98 14.324C141.452 14.324 142.668 14.644 143.628 15.284C144.588 15.892 145.068 16.756 145.068 17.876C145.068 18.804 144.764 19.636 144.156 20.372C143.548 21.076 142.748 21.62 141.756 22.004C140.796 22.388 139.74 22.58 138.588 22.58ZM135.708 55.7C133.66 55.7 132.204 55.188 131.34 54.164C130.476 53.14 130.044 51.668 130.044 49.748C130.044 49.044 130.14 48.068 130.332 46.82C130.524 45.54 130.78 44.132 131.1 42.596C131.42 41.028 131.756 39.444 132.108 37.844C132.46 36.244 132.796 34.74 133.116 33.332L130.428 29.3C132.124 28.276 133.74 27.428 135.276 26.756C136.812 26.052 138.348 25.7 139.884 25.7C141.228 25.7 142.156 25.988 142.668 26.564C143.212 27.14 143.484 28.036 143.484 29.252C143.484 29.732 143.356 30.516 143.1 31.604C142.876 32.692 142.588 33.972 142.236 35.444C141.884 36.916 141.532 38.468 141.18 40.1C140.828 41.7 140.524 43.284 140.268 44.852C140.044 46.388 139.932 47.764 139.932 48.98C139.932 49.94 140.044 50.804 140.268 51.572C140.524 52.308 140.908 52.9 141.42 53.348C139.628 54.916 137.724 55.7 135.708 55.7Z" fill="black"/>
<path d="M158.507 54.7775C155.673 53.8711 153.441 52.6031 151.812 50.9735C150.183 49.3439 149.153 47.4691 148.722 45.3492C148.331 43.2085 148.516 40.9495 149.276 38.5721C150.066 36.1032 151.224 34.0043 152.751 32.2753C154.319 30.5256 156.144 29.1775 158.227 28.231C160.311 27.2846 162.546 26.7562 164.933 26.646C167.35 26.5456 169.809 26.8949 172.308 27.6942C175.264 28.6396 177.234 29.9918 178.217 31.7507C179.2 33.5097 179.375 35.3798 178.741 37.3609C178.195 39.0678 177.115 40.5029 175.5 41.6663C173.925 42.8089 171.752 43.4579 168.981 43.6133C166.22 43.7382 162.777 43.158 158.653 41.8727C158.12 43.8526 158.07 45.5332 158.502 46.9143C158.974 48.2747 159.82 49.1499 161.039 49.5398C161.648 49.7347 162.332 49.8022 163.091 49.7423C163.859 49.6519 164.588 49.3141 165.279 48.7288C165.98 48.113 166.54 47.1498 166.959 45.8392C169.032 46.5019 170.589 47.252 171.632 48.0893C172.674 48.9266 173.006 49.9396 172.625 51.1283C172.275 52.2256 171.441 53.2022 170.126 54.0583C168.821 54.8839 167.157 55.4103 165.136 55.6375C163.155 55.8439 160.945 55.5573 158.507 54.7775ZM160.234 38.3467C162.517 38.8753 164.432 39.034 165.978 38.8228C167.523 38.6116 168.733 38.192 169.605 37.564C170.478 36.936 171.027 36.2714 171.251 35.5704C171.446 34.9608 171.424 34.3994 171.185 33.8862C170.945 33.373 170.491 33.0092 169.82 32.7948C168.723 32.4439 167.58 32.4984 166.391 32.9582C165.203 33.4181 164.063 34.1455 162.972 35.1405C161.922 36.1148 161.009 37.1835 160.234 38.3467Z" fill="black"/>
<path d="M95.3419 0.745117C80.5233 2.95218 78.5265 15.5899 79.3804 21.6328C81.154 15.5241 84.3067 11.5831 88.2478 9.2184C83.3215 14.1448 81.9421 18.0859 81.1539 23.2093C98.1005 18.8741 96.1302 5.86847 95.3419 0.745117Z" fill="#18AE5F"/>
<path d="M75.636 23.9983C71.9576 23.0787 64.9162 18.7565 66.1775 8.82499C74.6008 7.72772 77.153 17.5662 77.3386 21.9746C76.4222 20.0062 74.169 15.8633 72.3055 14.6065C73.7607 16.5094 76.4641 21.0517 75.636 23.9983Z" fill="#18AE5F"/>
</svg>
